<?xml version="1.0" encoding="utf-8"?>
<!-- Generator: Adobe Illustrator 23.1.0, SVG Export Plug-In . SVG Version: 6.00 Build 0)  -->
<svg version="1.1" id="Layer_2" xmlns="http://www.w3.org/2000/svg" xmlns:xlink="http://www.w3.org/1999/xlink" x="0px" y="0px"
	 viewBox="0 0 800 480" enable-background="new 0 0 800 480" xml:space="preserve">
<path fill="#272525" d="M621.1,141.7c-2.6-4.8-6.1-8.3-10-10.7c-14.1-8.5-33.6-2-36.4,14.2c-6.9,37.8-44.3,46.9-44.3,46.9
	s-0.2-7.7-2.1-19.5l0,0c-1.3-8.3-3.3-18.7-6.6-30l0,0c-2.5-8.6-5.7-17.8-9.8-26.9l0,0c-3.6-8-8-16-13.1-23.7
	c-4.9-7.2-10.5-14-16.9-20.3l0,0c-6.3-6.1-13.3-11.5-21.3-16.2l0,0c-8-4.6-16.8-8.4-26.7-11.1v0c-10.1-2.7-21.9-4.3-34.2-4.5l0,0
	c-0.6,0,0.6,0,0,0c-16.7,0-32.6,2.6-45.5,7.1l0,0c-35,12.3-56.6,38.8-70,65.7v0c-9.4,19-14.7,38.2-17.7,52.8l0,0
	c-3,14.9-3.6,25-3.6,25s-7.8,3.5-18.2-4.5v0c-5-3.8-10.5-10.3-16.1-21l0,0c-3.6-6.9-7.1-15.5-10.6-26.3l0,0
	c-0.4-1.1-0.7-2.3-1.1-3.5c-11.4-15.6-45.6-12.8-39.2,41.4l0,0c0.1,1.1,0.2,2.1,0.4,3.2c1.8,7.4,5.1,15.5,9.4,23.8v0
	c3.9,7.6,8.7,15.5,13.8,23.2l0,0c4.9,7.4,10.2,14.6,15.5,21.5l0,0c5.7,7.4,11.4,14.4,16.6,20.6l0,0c7,8.3,13.2,15.1,17.5,19.8l0,0
	c3.8,4.1,6,6.4,6,6.4s-3.2,13.9-9.5,33.1l0,0c-5.9,17.9-14.6,40.5-26,60.5l0,0c-7.5,13.1-16.1,25.1-25.9,34.1
	c2.5,6.8,7.3,11.2,13.5,13.8l0,0c9.8,4.2,23.1,3.9,36.8,1.6l0,0c25-4.2,51-15.2,57.9-18.2l0,0c1.2-0.5,1.8-0.8,1.8-0.8
	s12.3,3.8,28.7,8.2l0,0c9.4,2.5,20.1,5.2,30.6,7.4l0,0c12,2.5,25.4,4.6,34.8,5.2l0,0c1.8,0.1-1.6,0,0,0c13,0,33.7-5.4,49.2-11.7
	c20.8-8.4,38.4-18.3,38.4-18.3s5.1,2.5,13.2,5.8l0,0c7.3,3.1,17,6.9,27.5,10.3l0,0c9.9,3.2,20.4,6.1,30.3,7.7v0
	c20.1,3.2,37.3,1,40-14.6c-3.9-4.1-7.5-8.4-10.9-12.7c-5.6-7.1-10.7-14.5-15.3-21.8l0,0c-5-8-9.4-16.1-13.2-23.8l0,0
	c-4.5-9.1-8.2-17.7-11.2-25.5v0c-4.5-11.6-7.5-21.3-9.2-27.5c-1.3-4.8-1.9-7.5-1.9-7.5s48.5-46.8,73-95.5l0,0
	c8.4-16.7,13.9-33.7,13.7-49C623.1,150.9,622.4,146.2,621.1,141.7z M331.5,152c7.1,0,13.4,3.2,17.5,8.3l0,0
	c3.2,3.9,5.1,8.8,5.1,14.3c0,12.5-10.1,22.5-22.6,22.5c-5.9,0-11.3-2.3-15.3-6v0C300.9,176.5,311.3,152.1,331.5,152z M309.5,238.8
	h175.9l-39.5,30.1c0,0,0.6,7.2,0.1,17.3l0,0c-0.7,14.5-3.6,34.9-13.7,48.9c-3.1,4.3-6.9,8-11.5,10.8l0,0c-6.2,3.7-13.8,5.7-23.3,5.1
	c-6.2-0.4-11.5-1.9-16.1-4.1h0c-8.3-4.1-14.3-10.9-18.5-18.8h0c-4.7-8.7-7.2-18.7-8.6-28.1l0,0c-2.5-17-1.1-31.7-1.1-31.7
	L309.5,238.8z M486.6,175L486.6,175c-1,23.1-20.2,42.1-43.6,42.1c-0.2,0-0.4,0-0.5,0l0,0c-10.5-0.1-20.1-4-27.6-10.3
	c-6.9-5.8-11.9-13.7-14.2-22.7l0,0c-0.8-3.3-1.3-6.8-1.3-10.4c0-24,19.5-43.4,43.6-43.4c4.5,0,8.8,0.7,12.9,1.9l0,0
	c8.9,2.7,16.5,8.2,22,15.4v0C483.4,154.9,486.6,165.2,486.6,175C486.6,175.6,486.6,174.3,486.6,175z"/>
</svg>
